<?xml version="1.0" standalone="no"?>
<!DOCTYPE svg PUBLIC "-//W3C//DTD SVG 20010904//EN"
 "http://www.w3.org/TR/2001/REC-SVG-20010904/DTD/svg10.dtd">
<svg version="1.0" xmlns="http://www.w3.org/2000/svg"
 width="600.000000pt" height="600.000000pt" viewBox="0 0 600.000000 600.000000"
 preserveAspectRatio="xMidYMid meet">
<metadata>
Created by potrace 1.16, written by Peter Selinger 2001-2019
</metadata>
<g transform="translate(0.000000,600.000000) scale(0.100000,-0.100000)"
fill="#000000" stroke="none">
<path d="M0 3000 l0 -3000 3000 0 3000 0 0 3000 0 3000 -3000 0 -3000 0 0
-3000z m1257 2299 c462 -119 684 -199 1008 -364 397 -203 739 -449 1046 -755
177 -176 305 -329 381 -456 52 -88 146 -272 178 -349 20 -49 18 -47 -102 80
-549 584 -935 920 -1213 1056 -71 35 -76 36 -45 12 274 -218 571 -486 820
-739 200 -204 490 -519 498 -544 2 -5 -10 -16 -26 -24 -27 -14 -31 -14 -47 4
-30 34 -118 68 -215 84 -199 34 -265 48 -324 67 -72 24 -181 88 -169 99 4 4
37 12 73 17 36 6 94 24 130 40 l65 30 -115 7 c-378 24 -620 117 -915 352 -49
39 -107 89 -128 111 l-38 40 89 6 c98 6 198 29 252 57 l35 19 -131 1 c-212 0
-326 33 -463 133 -60 43 -234 216 -252 249 -10 19 -9 20 12 14 48 -15 312 -19
412 -6 54 7 96 14 94 16 -2 2 -66 13 -143 24 -308 43 -414 77 -554 181 -103
75 -252 276 -351 471 -39 78 -47 108 -29 108 5 0 81 -18 167 -41z m3014 -1872
c19 -12 43 -39 54 -59 18 -33 18 -39 5 -67 -28 -59 -114 -161 -130 -154 -8 3
-61 21 -117 40 -57 19 -103 38 -103 42 0 4 31 45 68 92 105 130 154 153 223
106z m203 -216 c68 -45 83 -111 39 -170 -78 -105 -258 -323 -273 -331 -49 -26
-108 6 -97 52 5 19 17 26 63 36 123 25 185 94 188 207 1 63 -18 90 -77 106
l-39 10 23 27 c70 80 72 82 108 82 20 0 49 -9 65 -19z m-400 -106 c72 -24 150
-49 174 -55 77 -20 90 -80 29 -139 -39 -39 -116 -56 -212 -47 -38 4 -79 8 -90
8 -22 0 -135 -44 -135 -53 0 -3 30 -11 67 -17 74 -12 87 -23 104 -87 20 -72 5
-160 -44 -258 l-45 -87 37 21 c55 34 89 68 129 132 33 54 38 58 65 53 32 -7
95 -54 192 -144 l63 -60 -62 -78 c-113 -143 -177 -187 -301 -210 -85 -16 -92
-20 -144 -68 -47 -44 -393 -425 -475 -523 -80 -95 -373 -319 -521 -398 -44
-24 -58 -26 -115 -21 -58 5 -95 20 -340 142 -393 194 -611 329 -752 465 -89
85 -62 137 143 281 92 65 172 155 201 225 20 51 23 74 23 198 0 125 -3 151
-29 238 -16 53 -26 100 -23 103 10 11 74 -16 139 -58 92 -59 200 -150 303
-253 74 -73 99 -106 133 -175 22 -47 45 -104 51 -128 9 -42 8 -45 -36 -100
-25 -31 -51 -63 -57 -71 -20 -26 33 -2 189 84 83 45 179 97 215 114 132 66
409 263 503 358 l58 59 15 120 c32 246 50 305 101 342 83 58 242 130 292 131
13 1 83 -19 155 -44z m575 -140 c22 -25 31 -46 31 -71 0 -31 -13 -48 -125
-163 -141 -144 -180 -171 -219 -153 -15 6 -32 23 -38 37 -10 23 -7 32 32 88
70 99 186 242 220 270 42 36 62 34 99 -8z m90 -213 c46 -66 35 -110 -46 -182
-66 -58 -141 -100 -180 -100 -39 0 -77 32 -68 59 10 31 231 251 253 251 11 0
30 -13 41 -28z m15 -477 c107 -161 129 -198 112 -188 -49 28 -326 287 -315
296 2 2 22 16 44 30 l39 27 23 -28 c13 -15 56 -76 97 -137z m-1725 -1472 c1
-17 -3 -35 -9 -38 -5 -3 -10 2 -10 13 0 27 -44 65 -76 65 -27 0 -64 -33 -64
-57 0 -24 33 -57 100 -100 38 -25 76 -56 85 -70 25 -37 21 -118 -6 -163 -37
-60 -134 -90 -205 -63 -20 8 -29 8 -34 -1 -12 -19 -20 5 -26 78 l-4 68 19 -42
c21 -45 71 -83 109 -83 30 0 78 25 86 45 3 9 6 30 6 47 0 34 -42 81 -123 135
-50 34 -67 64 -67 114 0 76 59 125 142 117 29 -3 51 -1 55 6 9 13 21 -26 22
-71z m1629 -7 c3 -73 -10 -87 -28 -31 -16 48 -44 65 -108 65 -63 0 -98 -16
-140 -64 -71 -82 -49 -252 43 -322 37 -28 104 -41 150 -30 25 6 26 8 23 78 -3
69 -5 73 -35 94 l-31 21 100 0 c56 -1 95 -3 87 -5 -28 -8 -39 -37 -39 -97 0
-52 -4 -65 -23 -83 -72 -68 -221 -51 -315 33 -119 107 -108 261 26 358 55 40
121 56 212 52 l75 -4 3 -65z m-3055 54 c-40 -16 -46 -46 -51 -236 -5 -199 -1
-214 58 -214 26 0 31 7 60 77 32 76 104 262 131 338 8 22 19 40 23 40 5 0 34
-67 66 -150 65 -170 97 -238 135 -284 l27 -31 -94 1 c-74 0 -88 3 -70 11 28
14 28 34 -2 103 l-25 55 -55 0 -54 0 -21 -62 c-26 -75 -26 -95 -3 -101 9 -3
-55 -5 -143 -6 -88 0 -155 3 -148 7 24 15 32 63 39 237 l7 178 -29 24 -29 23
100 -1 c68 0 93 -3 78 -9z m787 -47 c0 -54 -13 -70 -25 -32 -10 29 -64 59
-108 59 -97 0 -167 -87 -167 -208 0 -169 158 -253 273 -144 30 29 31 28 16
-31 -10 -43 -10 -43 -74 -55 -138 -26 -204 -6 -262 81 -80 120 -37 298 88 361
50 25 62 27 156 24 l103 -3 0 -52z m186 35 c-13 -18 -16 -56 -16 -210 0 -214
-2 -208 88 -208 35 0 57 6 75 20 l26 21 -13 -38 c-7 -21 -18 -38 -25 -37 -6 1
-68 2 -137 3 -114 1 -125 3 -113 17 9 11 15 77 21 217 9 200 9 202 -13 220
-21 17 -19 17 50 17 l72 0 -15 -22z m1145 -6 c34 -17 65 -44 84 -71 28 -40 30
-49 30 -130 0 -80 -3 -92 -30 -137 -77 -123 -275 -147 -387 -46 -82 74 -105
180 -59 275 60 123 235 176 362 109z m431 -10 c40 -24 64 -89 48 -136 -11 -33
-53 -79 -82 -88 -19 -7 67 -144 132 -209 63 -64 131 -102 222 -125 74 -19 130
-14 206 21 69 31 82 32 52 0 -49 -52 -186 -76 -294 -51 -139 33 -254 117 -354
259 -30 43 -63 84 -73 90 -28 17 -23 27 11 27 71 0 119 56 106 123 -9 50 -46
79 -105 85 -48 4 -50 3 -57 -23 -4 -15 -5 -106 -2 -202 5 -171 6 -176 29 -194
24 -18 24 -19 -59 -19 l-83 0 15 22 c13 19 16 58 16 223 0 147 -3 205 -12 214
-20 21 246 6 284 -17z m-916 -347 c24 -24 25 -28 11 -48 -18 -28 -53 -33 -78
-11 -25 23 -24 49 3 68 30 21 35 20 64 -9z"/>
<path d="M1787 665 c-22 -65 -22 -65 18 -65 40 0 42 6 16 69 l-18 44 -16 -48z"/>
<path d="M3500 811 c-20 -10 -44 -36 -58 -62 -32 -59 -27 -153 12 -233 33 -67
70 -95 133 -102 62 -7 128 26 155 76 23 44 24 135 1 192 -48 127 -149 180
-243 129z"/>
</g>
</svg>
